<?xml version="1.0" encoding="iso-8859-1"?>
<!-- Uploaded to: SVG Repo, www.svgrepo.com, Generator: SVG Repo Mixer Tools -->
<svg height="800px" width="800px" version="1.1" id="Layer_1" xmlns="http://www.w3.org/2000/svg" xmlns:xlink="http://www.w3.org/1999/xlink" 
	 viewBox="0 0 512 512" xml:space="preserve">
<circle style="fill:#273B7A;" cx="256" cy="256" r="256"/>
<path style="fill:#121149;" d="M310.413,506.185c102.834-22.263,182.658-106.293,198.654-211.32L367.388,153.185l-36.852,112.138
	l-87.007,47.161l-88.95-88.95l-14.77,21.218l80.381,80.381l-12.474,6.761l-36.79-36.788l-31.117,22.612l33.063,33.063l-11.585,6.278
	L310.413,506.185z"/>
<path style="fill:#488DFA;" d="M354.328,147.925H175.975c-10.437,0-18.897,8.461-18.897,18.897v25.822h-13.202
	c-2.817,0-5.099,2.282-5.099,5.099v43.935c0,2.817,2.282,5.099,5.099,5.099h13.202v18.83h-13.202c-2.817,0-5.099,2.282-5.099,5.099
	v43.935c0,2.817,2.282,5.099,5.099,5.099h13.202v25.431c0,10.437,8.461,18.897,18.897,18.897h178.354
	c10.437,0,18.897-8.461,18.897-18.897V166.822C373.226,156.386,364.765,147.925,354.328,147.925z"/>
<g>
	<path style="fill:#FFFFFF;" d="M343.157,314.897l-37.483-37.481c3.368-6.347,5.279-13.586,5.279-21.273s-1.91-14.926-5.279-21.273
		l37.481-37.483c5.218-5.22,5.22-13.681,0-18.901l0,0c-5.22-5.22-13.681-5.22-18.901,0l-37.481,37.483
		c-6.347-3.369-13.586-5.279-21.273-5.279c-7.687,0-14.926,1.91-21.273,5.279l-37.483-37.481c-5.22-5.22-13.681-5.22-18.901,0l0,0
		c-5.22,5.22-5.22,13.681,0,18.901l37.483,37.481c-3.368,6.347-5.279,13.586-5.279,21.273s1.91,14.926,5.279,21.273l-37.481,37.481
		c-5.218,5.22-5.22,13.681,0,18.901l0,0c5.22,5.22,13.681,5.22,18.901,0l37.481-37.481c6.347,3.368,13.586,5.279,21.271,5.279
		c7.687,0,14.926-1.91,21.273-5.279l37.483,37.481c5.22,5.22,13.681,5.22,18.901,0l0,0
		C348.377,328.58,348.377,320.117,343.157,314.897z"/>
	<path style="fill:#FFFFFF;" d="M345.705,287.384L345.705,287.384c-5.308,0-9.611-4.303-9.611-9.611v-43.544
		c0-5.308,4.303-9.611,9.611-9.611l0,0c5.308,0,9.611,4.303,9.611,9.611v43.544C355.316,283.079,351.013,287.384,345.705,287.384z"
		/>
</g>
<circle style="fill:#4F4F4E;" cx="265.499" cy="256.138" r="17.617"/>
</svg>